<?xml version="1.0" encoding="utf-8"?>
<!-- Generator: Adobe Illustrator 27.0.0, SVG Export Plug-In . SVG Version: 6.00 Build 0)  -->
<svg version="1.1" id="Layer_1" xmlns="http://www.w3.org/2000/svg" xmlns:xlink="http://www.w3.org/1999/xlink" x="0px" y="0px"
	 viewBox="0 0 598.7 193.42" style="enable-background:new 0 0 598.7 193.42;" xml:space="preserve">
<g>
	<path d="M93.12,190.13l-12.03-30.46l-14.36-33.18L26.97,33.95c-2.59-6.08-4.88-10.09-6.89-12.03c-2.01-1.94-4.04-3.1-6.11-3.49
		c-2.07-0.39-6.21-0.71-12.42-0.97L0,15.91V7.57l1.75-1.75c18.11,0.91,32.46,1.36,43.07,1.36c15,0,30.07-0.45,45.2-1.36l1.55,1.55
		v8.54l-1.55,1.55c-13.45,0.39-21.28,1.33-23.47,2.81c-2.2,1.49-3.3,3.4-3.3,5.72c0,3.88,2.59,12.22,7.76,25.03L94.67,110
		l18.62,44.04L132.7,110l16.1-39.97c6.21-15.13,10.22-25.87,12.03-32.21c1.81-6.34,2.72-10.54,2.72-12.61
		c0-2.46-1.42-4.23-4.27-5.33c-2.85-1.1-10.02-1.91-21.53-2.43l-1.55-1.55V7.57l1.75-1.75c16.04,0.91,28.06,1.36,36.08,1.36
		c6.72,0,18.24-0.45,34.53-1.36l1.75,1.75v8.34l-1.55,1.55c-7.63,0.65-12.71,1.75-15.23,3.3c-2.52,1.55-4.98,4.56-7.37,9.02
		c-2.4,4.46-9.28,18.33-20.66,41.61l-18.62,39.77c-3.1,6.73-14.29,33.05-33.56,78.96H93.12z"/>
	<path d="M317.59,190.13l-12.03-30.46l-14.36-33.18l-39.77-92.54c-2.59-6.08-4.88-10.09-6.89-12.03c-2.01-1.94-4.04-3.1-6.11-3.49
		c-2.07-0.39-6.21-0.71-12.42-0.97l-1.55-1.55V7.57l1.75-1.75c18.11,0.91,32.46,1.36,43.07,1.36c15,0,30.07-0.45,45.2-1.36
		l1.55,1.55v8.54l-1.55,1.55c-13.45,0.39-21.28,1.33-23.47,2.81c-2.2,1.49-3.3,3.4-3.3,5.72c0,3.88,2.59,12.22,7.76,25.03
		L319.14,110l18.62,44.04l19.4-44.04l16.1-39.97c6.21-15.13,10.21-25.87,12.03-32.21c1.81-6.34,2.72-10.54,2.72-12.61
		c0-2.46-1.43-4.23-4.27-5.33c-2.85-1.1-10.03-1.91-21.54-2.43l-1.55-1.55V7.57l1.75-1.75c16.04,0.91,28.06,1.36,36.09,1.36
		c6.72,0,18.24-0.45,34.53-1.36l1.75,1.75v8.34l-1.55,1.55c-7.63,0.65-12.71,1.75-15.23,3.3c-2.52,1.55-4.98,4.56-7.37,9.02
		c-2.39,4.46-9.28,18.33-20.66,41.61l-18.62,39.77c-3.1,6.73-14.29,33.05-33.56,78.96H317.59z"/>
	<path d="M462.71,129.6h8.34l1.75,1.75c0.26,10.86,0.9,20.18,1.94,27.94c4.01,6.08,10.93,11.03,20.76,14.84
		c9.83,3.82,19.53,5.72,29.1,5.72c13.71,0,24.67-3.69,32.88-11.06c8.21-7.37,12.32-16.17,12.32-26.38c0-5.56-1.49-10.38-4.46-14.45
		c-2.98-4.07-7.47-7.44-13.48-10.09c-6.01-2.65-16.78-5.79-32.3-9.41c-13.32-3.1-22.63-5.53-27.94-7.28
		c-5.31-1.75-10.41-4.69-15.33-8.83c-4.92-4.14-8.67-9.22-11.25-15.23c-2.59-6.01-3.88-12.64-3.88-19.89
		c0-17.33,6.89-31.2,20.66-41.61C495.59,5.21,512.76,0,533.32,0c8.66,0,18.11,1.2,28.33,3.59c10.21,2.4,17.98,4.69,23.28,6.89
		l1.75,2.72c-1.04,5.17-1.68,18.75-1.94,40.74l-1.75,1.75h-7.76l-1.75-1.75c-0.52-7.89-1.23-13.42-2.13-16.59
		c-0.91-3.17-3.23-6.6-6.98-10.28c-3.75-3.69-9.05-6.79-15.91-9.31c-6.86-2.52-14.1-3.78-21.73-3.78c-7.89,0-14.52,1.16-19.88,3.49
		c-5.37,2.33-9.7,5.85-13,10.57c-3.3,4.72-4.95,10.45-4.95,17.17c0,4.92,1,9.31,3.01,13.19c2,3.88,5.07,7.02,9.21,9.41
		c4.14,2.39,8.47,4.11,13,5.14l21.15,5.43c18.11,4.4,31.07,8.21,38.9,11.45c7.82,3.23,13.87,8.12,18.14,14.65
		c4.27,6.53,6.4,14.45,6.4,23.77c0,17.85-7.37,33.18-22.12,45.98c-14.75,12.8-33.69,19.21-56.84,19.21
		c-8.15,0-18.27-0.91-30.36-2.72c-12.09-1.81-22.41-3.82-30.94-6.01l-0.97-2.52l1.94-13c0.65-4.01,1.03-8.05,1.16-12.12
		c0.13-4.07,0.26-12.64,0.39-25.71L462.71,129.6z"/>
</g>
</svg>
